# xmcd
#
# Track frame offsets:
#	150
#	14910
#	31553
#	46224
#	62410
#	79317
#	91469
#	105079
#	120562
#	136910
#	150532
#	166513
#	179939
#	201645
#	217079
#
# Disc length: 3076 seconds
#
# Revision: 1
# Processed by: cddbd v1.5.1PL2 Copyright (c) Steve Scherf et al.
# Submitted via: audiograbber 1.83.01
#
DISCID=c70c020f
DTITLE=Johnny Hill, Linda Feller - Gala der Gefühle
DYEAR=2004
DGENRE=Country
TTITLE0=Linda Feller, Johnny Hill - Darling
TTITLE1=Linda Feller - Wenn du traurig bist...
TTITLE2=Linda Feller - Wir waren noch Kinder
TTITLE3=Johnny Hill - Zorn und ZärtlichkeitTrack  4
TTITLE4=Johnny Hill - Rosen für Mama
TTITLE5=Linda felle, Johnny Hill - Zusammensteh'n
TTITLE6=Linda Feller - Wenn Worte zerstören
TTITLE7=Johnny Hill - Mehr als tausend kleine Sünden
TTITLE8=Johnny Hill - Nimm mich fest in deine Arme
TTITLE9=Linda Feller - Die Nacht die kommt gehört Dir nicht
TTITLE10=Linda Feller - Andre Mütter haben auch ein schönes KindTrack 11
TTITLE11=Johnny Hill - Ich hab noch viele Träume
TTITLE12=Johnny Hill - Ruf Teddybär 1-4
TTITLE13=Linda Feller - Ein Haus viel schöner als Zuhaus
TTITLE14=Johnny Hill - Ich lösche das Licht aus (Dreaming My Dreams)
EXTD=
EXTT0=
EXTT1=
EXTT2=
EXTT3=
EXTT4=
EXTT5=
EXTT6=
EXTT7=
EXTT8=
EXTT9=
EXTT10=
EXTT11=
EXTT12=
EXTT13=
EXTT14=
PLAYORDER=
